<?xml version="1.0" encoding="utf-8"?>
<!-- Generator: Adobe Illustrator 15.1.0, SVG Export Plug-In . SVG Version: 6.00 Build 0)  -->
<!DOCTYPE svg PUBLIC "-//W3C//DTD SVG 1.1//EN" "http://www.w3.org/Graphics/SVG/1.1/DTD/svg11.dtd">
<svg version="1.1" xmlns="http://www.w3.org/2000/svg" xmlns:xlink="http://www.w3.org/1999/xlink" x="0px" y="0px"
	 width="87.156px" height="87.141px" viewBox="0 0 87.156 87.141" enable-background="new 0 0 87.156 87.141" xml:space="preserve">
<g id="Layer_1">
</g>
<g id="Isolation_Mode">
	<g>
		<path fill="#232323" d="M0.349,43.563c0.002,0.94-0.102,1.879-0.333,2.809c-0.094,0.373,0.239,0.705,0.611,0.611
			c5.725-1.428,11.785,2.025,16.493,4.93c0.833,0.514,1.655,1.045,2.47,1.586c-0.193,0.959-0.399,1.916-0.625,2.868
			c-1.275,5.384-3.118,12.11-8.178,15.148c-0.328,0.197-0.328,0.667,0,0.864c0.822,0.493,1.559,1.084,2.223,1.751
			c0.667,0.663,1.258,1.401,1.751,2.222c0.197,0.329,0.667,0.329,0.864,0c3.039-5.059,9.766-6.901,15.148-8.176
			c0.953-0.227,1.908-0.433,2.867-0.625c0.543,0.814,1.072,1.637,1.587,2.469c2.905,4.709,6.358,10.769,4.929,16.494
			c-0.092,0.371,0.24,0.703,0.611,0.611c0.93-0.232,1.869-0.336,2.811-0.334c0.94-0.002,1.879,0.102,2.809,0.334
			c0.372,0.092,0.704-0.24,0.611-0.611c-1.429-5.726,2.024-11.785,4.93-16.494c0.514-0.832,1.045-1.654,1.586-2.469
			c0.959,0.192,1.915,0.398,2.867,0.625c5.384,1.274,12.111,3.117,15.148,8.176c0.197,0.329,0.668,0.329,0.865,0
			c0.492-0.82,1.084-1.559,1.75-2.222c0.664-0.667,1.401-1.258,2.223-1.751c0.328-0.197,0.328-0.667,0-0.864
			c-5.059-3.038-6.902-9.765-8.178-15.148c-0.225-0.952-0.431-1.909-0.624-2.868c0.814-0.541,1.637-1.072,2.47-1.586
			c4.708-2.904,10.768-6.357,16.493-4.93c0.372,0.094,0.704-0.238,0.611-0.611c-0.231-0.93-0.335-1.868-0.333-2.809
			c-0.002-0.941,0.102-1.88,0.333-2.81c0.093-0.372-0.239-0.704-0.611-0.611c-5.726,1.429-11.785-2.024-16.493-4.929
			c-0.833-0.515-1.655-1.045-2.47-1.587c0.193-0.959,0.399-1.915,0.624-2.868c1.275-5.383,3.119-12.109,8.178-15.147
			c0.328-0.197,0.328-0.667,0-0.864c-0.821-0.494-1.559-1.084-2.223-1.751c-0.666-0.664-1.258-1.401-1.75-2.223
			c-0.197-0.328-0.668-0.328-0.865,0c-3.037,5.06-9.765,6.902-15.148,8.177c-0.952,0.227-1.908,0.432-2.867,0.625
			c-0.541-0.814-1.072-1.637-1.586-2.469c-2.905-4.709-6.358-10.769-4.93-16.494C47.091,0.24,46.759-0.093,46.387,0
			c-0.93,0.232-1.868,0.336-2.809,0.334C42.637,0.336,41.698,0.232,40.768,0c-0.371-0.093-0.703,0.24-0.611,0.611
			c1.43,5.726-2.023,11.785-4.929,16.494c-0.515,0.832-1.044,1.654-1.587,2.469c-0.959-0.193-1.914-0.398-2.867-0.625
			c-5.383-1.274-12.109-3.117-15.148-8.177c-0.197-0.328-0.667-0.328-0.864,0c-0.493,0.821-1.084,1.559-1.751,2.223
			c-0.664,0.667-1.4,1.257-2.223,1.751c-0.328,0.197-0.328,0.667,0,0.864c5.06,3.038,6.902,9.765,8.178,15.147
			c0.226,0.953,0.432,1.909,0.625,2.868c-0.814,0.542-1.637,1.072-2.47,1.587c-4.708,2.904-10.769,6.357-16.493,4.929
			c-0.372-0.093-0.705,0.239-0.611,0.611C0.248,41.683,0.351,42.621,0.349,43.563z M21.827,52.572
			c-2.114-1.441-4.266-2.821-6.52-4.039c-4.032-2.18-8.742-4.267-13.404-3.437c0.09-0.511,0.146-1.022,0.171-1.534
			c-0.024-0.512-0.081-1.023-0.171-1.534c4.662,0.829,9.372-1.257,13.404-3.437c2.254-1.219,4.405-2.599,6.52-4.039
			c-0.477-2.514-1.021-5.012-1.754-7.467c-1.311-4.393-3.165-9.197-7.049-11.908c0.426-0.297,0.827-0.619,1.206-0.963
			c0.345-0.379,0.667-0.781,0.964-1.207c2.71,3.885,7.516,5.739,11.908,7.049c2.455,0.732,4.953,1.278,7.466,1.754
			c1.44-2.113,2.821-4.266,4.04-6.52c2.18-4.031,4.266-8.742,3.436-13.404c0.512,0.091,1.023,0.146,1.535,0.172
			c0.511-0.025,1.022-0.081,1.533-0.172c-0.83,4.662,1.258,9.373,3.437,13.404c1.218,2.254,2.599,4.406,4.04,6.52
			c2.513-0.476,5.011-1.021,7.466-1.754c4.392-1.31,9.198-3.164,11.908-7.049c0.297,0.426,0.619,0.828,0.964,1.207
			c0.379,0.344,0.779,0.666,1.205,0.963c-3.883,2.711-5.738,7.516-7.048,11.908c-0.732,2.455-1.278,4.953-1.754,7.467
			c2.114,1.44,4.267,2.82,6.52,4.039c4.032,2.18,8.742,4.266,13.404,3.437c-0.091,0.511-0.146,1.022-0.171,1.534
			c0.024,0.512,0.08,1.023,0.171,1.534c-4.662-0.83-9.372,1.257-13.404,3.437c-2.253,1.218-4.405,2.598-6.52,4.039
			c0.476,2.514,1.021,5.012,1.754,7.467c1.31,4.392,3.165,9.197,7.048,11.908c-0.426,0.297-0.826,0.619-1.205,0.963
			c-0.345,0.379-0.667,0.78-0.964,1.206c-2.71-3.884-7.517-5.739-11.908-7.048c-2.455-0.732-4.953-1.278-7.466-1.754
			c-1.441,2.113-2.822,4.266-4.04,6.52c-2.179,4.031-4.267,8.742-3.437,13.404c-0.511-0.092-1.022-0.146-1.533-0.172
			c-0.512,0.025-1.023,0.08-1.535,0.172c0.83-4.662-1.256-9.373-3.436-13.404c-1.219-2.254-2.6-4.406-4.04-6.52
			c-2.513,0.476-5.011,1.021-7.466,1.754c-4.393,1.309-9.198,3.164-11.908,7.048c-0.297-0.426-0.619-0.827-0.964-1.206
			c-0.379-0.344-0.78-0.666-1.206-0.963c3.884-2.711,5.738-7.517,7.049-11.908C20.805,57.584,21.35,55.086,21.827,52.572z"/>
		<path fill="#232323" d="M36.167,43.563c0.907,0.655,1.823,1.299,2.746,1.932c-0.205,1.102-0.396,2.204-0.576,3.309
			c1.105-0.178,2.209-0.37,3.309-0.575c0.634,0.923,1.277,1.839,1.934,2.747c0.654-0.908,1.299-1.824,1.932-2.747
			c1.101,0.205,2.203,0.397,3.309,0.575c-0.179-1.104-0.371-2.207-0.576-3.309c0.924-0.633,1.84-1.276,2.747-1.932
			c-0.907-0.655-1.823-1.299-2.747-1.933c0.205-1.101,0.397-2.203,0.576-3.309c-1.105,0.179-2.208,0.37-3.309,0.576
			c-0.633-0.923-1.277-1.839-1.932-2.747c-0.656,0.908-1.3,1.824-1.934,2.747c-1.1-0.206-2.203-0.397-3.309-0.576
			c0.18,1.105,0.371,2.208,0.576,3.309C37.99,42.264,37.074,42.907,36.167,43.563z M40.951,44.65
			c-0.536-0.359-1.068-0.722-1.599-1.088c0.53-0.367,1.063-0.729,1.599-1.088c-0.125-0.633-0.245-1.266-0.36-1.9
			c0.634,0.115,1.268,0.236,1.899,0.361c0.358-0.535,0.722-1.068,1.089-1.6c0.365,0.531,0.729,1.064,1.088,1.6
			c0.633-0.125,1.266-0.246,1.899-0.361c-0.116,0.635-0.235,1.268-0.36,1.9c0.535,0.358,1.068,0.721,1.598,1.088
			c-0.529,0.366-1.063,0.729-1.598,1.088c0.125,0.633,0.244,1.266,0.36,1.9c-0.634-0.116-1.267-0.236-1.899-0.361
			c-0.359,0.535-0.723,1.068-1.088,1.599c-0.367-0.53-0.73-1.063-1.089-1.599c-0.632,0.125-1.266,0.245-1.899,0.361
			C40.706,45.916,40.826,45.283,40.951,44.65z"/>
		<path fill="#232323" d="M41.254,43.563c0.03,0.031,0.062,0.057,0.094,0.078c0.318,0.258,0.714,0.391,1.106,0.387
			c-0.28,0.275-0.466,0.648-0.509,1.056c-0.008,0.038-0.012,0.078-0.011,0.122c0.044,0.002,0.084-0.003,0.122-0.01
			c0.406-0.045,0.78-0.229,1.056-0.51c-0.003,0.393,0.13,0.787,0.386,1.106c0.021,0.032,0.047,0.063,0.08,0.094
			c0.031-0.03,0.057-0.062,0.078-0.094c0.257-0.319,0.39-0.714,0.387-1.106c0.275,0.28,0.648,0.465,1.055,0.51
			c0.039,0.007,0.078,0.012,0.123,0.01c0.001-0.044-0.004-0.084-0.011-0.122c-0.044-0.407-0.229-0.78-0.509-1.056
			c0.393,0.004,0.787-0.129,1.105-0.387c0.033-0.021,0.064-0.047,0.094-0.078c-0.029-0.032-0.061-0.058-0.094-0.079
			c-0.318-0.257-0.713-0.39-1.105-0.386c0.279-0.275,0.465-0.649,0.509-1.057c0.007-0.037,0.012-0.078,0.011-0.121
			c-0.045-0.002-0.084,0.002-0.123,0.01c-0.406,0.044-0.779,0.229-1.055,0.51c0.003-0.393-0.13-0.788-0.387-1.107
			c-0.021-0.031-0.047-0.063-0.078-0.094c-0.033,0.031-0.059,0.063-0.08,0.094c-0.256,0.319-0.389,0.715-0.386,1.107
			c-0.275-0.28-0.649-0.466-1.056-0.51c-0.038-0.008-0.078-0.012-0.122-0.01c-0.001,0.043,0.003,0.084,0.011,0.121
			c0.043,0.407,0.229,0.781,0.509,1.057c-0.393-0.004-0.788,0.129-1.106,0.386C41.316,43.505,41.285,43.53,41.254,43.563z"/>
		<path fill="#232323" d="M10.76,43.563c3.394,0.913,6.672,2.832,9.459,4.553c1.62,1,3.197,2.064,4.76,3.151
			c-0.336,1.873-0.699,3.741-1.138,5.595c-0.755,3.186-1.715,6.861-3.469,9.906c3.046-1.754,6.72-2.714,9.907-3.469
			c1.853-0.439,3.721-0.801,5.594-1.137c1.088,1.562,2.152,3.139,3.152,4.76c1.719,2.787,3.639,6.064,4.553,9.457
			c0.913-3.393,2.832-6.67,4.552-9.457c1-1.621,2.064-3.198,3.151-4.76c1.873,0.336,3.742,0.697,5.595,1.137
			c3.187,0.755,6.861,1.715,9.907,3.469c-1.754-3.045-2.715-6.721-3.469-9.906c-0.439-1.854-0.802-3.722-1.138-5.595
			c1.562-1.087,3.14-2.151,4.76-3.151c2.787-1.721,6.065-3.64,9.458-4.553c-3.393-0.914-6.671-2.833-9.458-4.553
			c-1.62-1-3.198-2.064-4.76-3.151c0.336-1.874,0.698-3.741,1.138-5.595c0.754-3.187,1.715-6.861,3.469-9.906
			c-3.046,1.754-6.721,2.713-9.907,3.469c-1.853,0.438-3.722,0.801-5.595,1.137c-1.087-1.563-2.151-3.139-3.151-4.76
			c-1.72-2.787-3.639-6.064-4.552-9.458c-0.914,3.394-2.834,6.671-4.553,9.458c-1,1.621-2.064,3.197-3.152,4.76
			c-1.873-0.336-3.741-0.698-5.594-1.137c-3.188-0.756-6.861-1.715-9.907-3.469c1.754,3.045,2.714,6.72,3.469,9.906
			c0.438,1.854,0.802,3.721,1.138,5.595c-1.563,1.087-3.14,2.151-4.76,3.151C17.432,40.729,14.154,42.648,10.76,43.563z
			 M36.151,46.639c-1.438-1-2.855-2.025-4.256-3.076c1.4-1.051,2.818-2.077,4.256-3.076c-0.31-1.723-0.588-3.451-0.834-5.186
			c1.733,0.247,3.462,0.525,5.185,0.834c0.999-1.437,2.025-2.855,3.077-4.256c1.051,1.4,2.076,2.819,3.076,4.256
			c1.723-0.309,3.451-0.587,5.184-0.834c-0.246,1.734-0.523,3.463-0.832,5.186c1.436,0.999,2.854,2.025,4.254,3.076
			c-1.399,1.051-2.818,2.076-4.254,3.076c0.309,1.723,0.586,3.451,0.832,5.185c-1.732-0.247-3.461-0.524-5.184-0.833
			c-1,1.436-2.025,2.855-3.076,4.255c-1.052-1.399-2.078-2.819-3.077-4.255c-1.723,0.309-3.451,0.586-5.185,0.833
			C35.563,50.09,35.841,48.361,36.151,46.639z M29.543,43.563c0.386,0.303,0.773,0.604,1.164,0.902
			c-0.447,0.406-0.903,0.805-1.279,1.283c-0.194,0.248-0.427,0.534-0.424,0.869c0.002,0.172,0.066,0.326,0.172,0.458
			c0.044,0.066,0.101,0.12,0.17,0.161c-0.088-0.068-0.095-0.075-0.021-0.018c0.003,0.002,0.004,0.002,0.006,0.004
			c0.056,0.049,0.119,0.087,0.193,0.107c0.136,0.055,0.262,0.072,0.407,0.045c0.296-0.057,0.481-0.266,0.658-0.495
			c0.414-0.538,0.69-1.153,0.979-1.762c0.455,0.343,0.913,0.685,1.373,1.022c-1.035,1.405-2.723,3.395-4.406,2.072
			c-1.572-1.235-0.328-3.256,0.705-4.65c-1.033-1.395-2.277-3.415-0.705-4.65c1.684-1.322,3.371,0.666,4.406,2.072
			c-0.46,0.338-0.918,0.68-1.373,1.022c-0.289-0.608-0.565-1.224-0.979-1.762c-0.177-0.229-0.362-0.438-0.658-0.495
			c-0.146-0.027-0.271-0.011-0.407,0.045c-0.074,0.02-0.138,0.058-0.193,0.107c-0.002,0.002-0.003,0.002-0.006,0.004
			c-0.073,0.057-0.066,0.051,0.021-0.018c-0.069,0.041-0.126,0.095-0.17,0.161c-0.105,0.132-0.17,0.286-0.172,0.458
			c-0.003,0.334,0.229,0.621,0.424,0.869c0.376,0.478,0.832,0.877,1.279,1.283C30.317,42.959,29.929,43.26,29.543,43.563z
			 M33.654,33.639c0.06,0.486,0.12,0.974,0.185,1.461c-0.604-0.029-1.207-0.069-1.811,0.003c-0.313,0.038-0.68,0.076-0.914,0.315
			c-0.121,0.123-0.186,0.277-0.203,0.445c-0.016,0.078-0.014,0.156,0.006,0.233c-0.014-0.11-0.014-0.12-0.002-0.026
			c0,0.002,0,0.003,0,0.006c0.006,0.074,0.023,0.146,0.061,0.213c0.058,0.135,0.135,0.236,0.258,0.319
			c0.25,0.169,0.527,0.153,0.814,0.116c0.674-0.088,1.304-0.328,1.939-0.554c0.078,0.565,0.161,1.13,0.248,1.693
			c-1.727,0.263-4.326,0.476-4.582-1.65c-0.238-1.985,2.07-2.534,3.787-2.79c0.256-1.717,0.805-4.025,2.789-3.787
			c2.127,0.256,1.913,2.855,1.65,4.582c-0.563-0.086-1.128-0.168-1.693-0.248c0.227-0.635,0.466-1.266,0.554-1.938
			c0.037-0.286,0.054-0.565-0.116-0.815c-0.083-0.123-0.184-0.199-0.319-0.257c-0.066-0.038-0.138-0.056-0.213-0.061
			c-0.003-0.001-0.003-0.001-0.006-0.001c-0.093-0.012-0.084-0.011,0.026,0.002c-0.077-0.02-0.155-0.021-0.234-0.006
			c-0.167,0.019-0.321,0.082-0.444,0.203c-0.239,0.234-0.277,0.602-0.315,0.914c-0.072,0.604-0.031,1.207-0.003,1.812
			C34.627,33.759,34.141,33.697,33.654,33.639z M43.579,29.527c-0.303,0.387-0.604,0.774-0.902,1.164
			c-0.407-0.447-0.807-0.902-1.283-1.278c-0.248-0.194-0.535-0.427-0.87-0.424c-0.172,0.002-0.326,0.065-0.458,0.171
			c-0.066,0.045-0.12,0.102-0.161,0.17c0.069-0.088,0.075-0.094,0.018-0.021c-0.001,0.003-0.002,0.003-0.003,0.005
			c-0.051,0.057-0.088,0.119-0.108,0.193c-0.056,0.137-0.072,0.262-0.044,0.408c0.057,0.296,0.266,0.481,0.494,0.658
			c0.538,0.414,1.153,0.689,1.762,0.979c-0.343,0.456-0.684,0.914-1.021,1.373c-1.406-1.035-3.396-2.723-2.072-4.406
			c1.234-1.572,3.255-0.328,4.65,0.705c1.395-1.033,3.414-2.277,4.649-0.705c1.323,1.684-0.667,3.371-2.072,4.406
			c-0.338-0.459-0.679-0.917-1.022-1.373c0.609-0.289,1.225-0.564,1.762-0.979c0.23-0.177,0.438-0.362,0.495-0.658
			c0.028-0.146,0.011-0.271-0.044-0.408c-0.021-0.074-0.059-0.137-0.108-0.193c-0.001-0.002-0.001-0.002-0.003-0.005
			c-0.059-0.073-0.053-0.067,0.018,0.021c-0.041-0.068-0.096-0.125-0.162-0.17c-0.131-0.105-0.285-0.169-0.457-0.171
			c-0.336-0.003-0.622,0.229-0.87,0.424c-0.478,0.376-0.876,0.831-1.283,1.278C44.182,30.302,43.881,29.914,43.579,29.527z
			 M53.502,33.639c-0.487,0.059-0.975,0.12-1.461,0.185c0.028-0.604,0.068-1.208-0.004-1.812c-0.037-0.313-0.076-0.68-0.314-0.914
			c-0.123-0.121-0.277-0.185-0.445-0.203c-0.078-0.016-0.156-0.014-0.234,0.006c0.111-0.013,0.12-0.014,0.027-0.002
			c-0.003,0-0.004,0-0.006,0.001c-0.075,0.005-0.146,0.022-0.213,0.061c-0.136,0.058-0.236,0.134-0.32,0.257
			c-0.169,0.25-0.152,0.529-0.115,0.815c0.088,0.673,0.328,1.304,0.553,1.938c-0.564,0.08-1.129,0.162-1.693,0.248
			c-0.262-1.727-0.475-4.326,1.65-4.582c1.985-0.238,2.534,2.07,2.789,3.787c1.718,0.256,4.025,0.805,3.787,2.79
			c-0.254,2.126-2.855,1.913-4.581,1.65c0.087-0.563,0.169-1.128,0.248-1.693c0.636,0.226,1.266,0.466,1.938,0.554
			c0.287,0.037,0.566,0.053,0.815-0.116c0.123-0.083,0.2-0.185,0.257-0.319c0.037-0.066,0.056-0.139,0.061-0.213
			c0-0.003,0-0.004,0.001-0.006c0.012-0.094,0.011-0.084-0.002,0.026c0.02-0.077,0.021-0.155,0.006-0.233
			c-0.019-0.168-0.083-0.322-0.202-0.445c-0.234-0.239-0.602-0.277-0.916-0.315c-0.602-0.072-1.207-0.032-1.811-0.003
			C53.381,34.612,53.443,34.125,53.502,33.639z M57.614,43.563c-0.387-0.303-0.775-0.604-1.165-0.902
			c0.447-0.406,0.903-0.806,1.278-1.283c0.195-0.248,0.428-0.535,0.424-0.869c-0.002-0.172-0.065-0.326-0.171-0.458
			c-0.044-0.066-0.101-0.12-0.17-0.161c0.087,0.068,0.095,0.074,0.021,0.018c-0.002-0.002-0.002-0.002-0.005-0.004
			c-0.056-0.05-0.12-0.088-0.193-0.107c-0.136-0.056-0.261-0.072-0.407-0.045c-0.297,0.057-0.482,0.266-0.658,0.495
			c-0.414,0.538-0.69,1.153-0.98,1.762c-0.455-0.343-0.912-0.685-1.372-1.022c1.034-1.406,2.723-3.395,4.406-2.072
			c1.572,1.235,0.328,3.256-0.705,4.65c1.033,1.395,2.277,3.415,0.705,4.65c-1.684,1.322-3.372-0.667-4.406-2.072
			c0.46-0.338,0.917-0.68,1.372-1.022c0.29,0.608,0.566,1.224,0.98,1.762c0.176,0.229,0.361,0.438,0.658,0.495
			c0.146,0.027,0.271,0.01,0.407-0.045c0.073-0.021,0.138-0.059,0.193-0.107c0.003-0.002,0.003-0.002,0.005-0.004
			c0.074-0.058,0.066-0.051-0.021,0.018c0.069-0.041,0.126-0.095,0.17-0.161c0.105-0.132,0.169-0.286,0.171-0.458
			c0.004-0.335-0.229-0.621-0.424-0.869c-0.375-0.479-0.831-0.877-1.278-1.283C56.838,44.166,57.227,43.865,57.614,43.563z
			 M53.502,53.486c-0.06-0.486-0.121-0.975-0.186-1.461c0.604,0.029,1.209,0.068,1.811-0.004c0.314-0.037,0.682-0.075,0.916-0.314
			c0.119-0.123,0.184-0.277,0.202-0.445c0.016-0.078,0.014-0.156-0.006-0.233c0.013,0.11,0.014,0.12,0.002,0.026
			c-0.001-0.002-0.001-0.003-0.001-0.006c-0.005-0.074-0.023-0.146-0.061-0.213c-0.057-0.135-0.134-0.236-0.257-0.319
			c-0.249-0.169-0.528-0.153-0.815-0.116c-0.673,0.088-1.303,0.328-1.938,0.554c-0.079-0.565-0.161-1.13-0.248-1.693
			c1.726-0.263,4.327-0.476,4.581,1.649c0.238,1.986-2.069,2.535-3.787,2.79c-0.255,1.718-0.804,4.025-2.789,3.787
			c-2.125-0.255-1.912-2.855-1.65-4.581c0.564,0.086,1.129,0.168,1.693,0.248c-0.225,0.635-0.465,1.266-0.553,1.938
			c-0.037,0.287-0.054,0.566,0.115,0.816c0.084,0.123,0.185,0.199,0.32,0.257c0.066,0.037,0.138,0.056,0.213,0.06
			c0.002,0.001,0.003,0.001,0.006,0.002c0.093,0.012,0.084,0.01-0.027-0.002c0.078,0.02,0.156,0.021,0.234,0.006
			c0.168-0.02,0.322-0.083,0.445-0.203c0.238-0.234,0.277-0.602,0.314-0.915c0.072-0.603,0.032-1.207,0.004-1.812
			C52.528,53.365,53.015,53.428,53.502,53.486z M43.579,57.598c0.303-0.387,0.604-0.774,0.901-1.164
			c0.407,0.447,0.806,0.902,1.283,1.277c0.248,0.195,0.534,0.428,0.87,0.424c0.172-0.001,0.326-0.064,0.457-0.17
			c0.066-0.045,0.121-0.102,0.162-0.17c-0.07,0.087-0.076,0.094-0.018,0.02c0.002-0.002,0.002-0.002,0.003-0.004
			c0.05-0.057,0.087-0.12,0.108-0.193c0.055-0.137,0.072-0.262,0.044-0.408c-0.057-0.297-0.265-0.482-0.495-0.658
			c-0.537-0.414-1.152-0.689-1.762-0.979c0.344-0.456,0.685-0.913,1.022-1.373c1.405,1.035,3.396,2.724,2.072,4.407
			c-1.235,1.572-3.255,0.328-4.649-0.705c-1.396,1.033-3.416,2.277-4.65,0.705c-1.323-1.684,0.666-3.372,2.072-4.407
			c0.338,0.46,0.679,0.917,1.021,1.373c-0.608,0.29-1.224,0.565-1.762,0.979c-0.229,0.176-0.438,0.361-0.494,0.658
			c-0.028,0.146-0.012,0.271,0.044,0.408c0.021,0.073,0.058,0.137,0.108,0.193c0.001,0.002,0.002,0.002,0.003,0.004
			c0.058,0.074,0.052,0.067-0.018-0.02c0.041,0.068,0.095,0.125,0.161,0.17c0.132,0.105,0.286,0.169,0.458,0.17
			c0.335,0.004,0.622-0.229,0.87-0.424c0.477-0.375,0.876-0.83,1.283-1.277C42.975,56.823,43.276,57.211,43.579,57.598z
			 M33.654,53.486c0.487-0.059,0.974-0.121,1.461-0.186c-0.028,0.604-0.069,1.209,0.003,1.812c0.038,0.313,0.076,0.681,0.315,0.915
			c0.123,0.12,0.277,0.184,0.444,0.203c0.079,0.016,0.157,0.014,0.234-0.006c-0.11,0.012-0.119,0.014-0.026,0.002
			c0.003-0.001,0.003-0.001,0.006-0.002c0.075-0.004,0.146-0.022,0.213-0.06c0.136-0.058,0.236-0.134,0.319-0.257
			c0.17-0.25,0.153-0.529,0.116-0.816c-0.088-0.672-0.327-1.303-0.554-1.938c0.565-0.08,1.13-0.162,1.693-0.248
			c0.263,1.726,0.477,4.326-1.65,4.581c-1.984,0.238-2.533-2.069-2.789-3.787c-1.717-0.255-4.025-0.804-3.787-2.79
			c0.256-2.125,2.855-1.912,4.582-1.649c-0.087,0.563-0.17,1.128-0.248,1.693c-0.636-0.226-1.266-0.466-1.939-0.554
			c-0.287-0.037-0.564-0.053-0.814,0.116c-0.123,0.083-0.2,0.185-0.258,0.319c-0.037,0.066-0.055,0.139-0.061,0.213
			c0,0.003,0,0.004,0,0.006c-0.012,0.094-0.012,0.084,0.002-0.026c-0.02,0.077-0.021,0.155-0.006,0.233
			c0.018,0.168,0.082,0.322,0.203,0.445c0.234,0.239,0.601,0.277,0.914,0.314c0.604,0.072,1.207,0.033,1.811,0.004
			C33.774,52.512,33.713,53,33.654,53.486z M26.025,43.563c-0.872,0.736-1.876,1.187-2.868,0.572
			c-0.275-0.17-0.479-0.363-0.621-0.572c0.143-0.21,0.346-0.402,0.621-0.572C24.149,42.376,25.153,42.826,26.025,43.563z
			 M31.167,31.15c-1.137-0.096-2.166-0.487-2.434-1.623c-0.074-0.314-0.082-0.595-0.035-0.844c0.25-0.048,0.53-0.04,0.845,0.033
			C30.678,28.984,31.071,30.014,31.167,31.15z M43.579,26.01c-0.736-0.872-1.188-1.876-0.572-2.869
			c0.17-0.274,0.361-0.478,0.572-0.621c0.209,0.144,0.402,0.347,0.572,0.621C44.764,24.134,44.314,25.138,43.579,26.01z
			 M55.99,31.15c0.096-1.137,0.487-2.166,1.624-2.434c0.314-0.073,0.594-0.081,0.844-0.033c0.047,0.249,0.039,0.529-0.035,0.844
			C58.155,30.663,57.127,31.055,55.99,31.15z M61.131,43.563c0.871-0.736,1.875-1.187,2.868-0.572
			c0.274,0.17,0.478,0.362,0.621,0.572c-0.144,0.209-0.347,0.402-0.621,0.572C63.006,44.749,62.002,44.299,61.131,43.563z
			 M55.99,55.975c1.138,0.096,2.165,0.486,2.433,1.623c0.074,0.314,0.082,0.595,0.035,0.844c-0.25,0.047-0.529,0.04-0.844-0.034
			C56.477,58.14,56.085,57.111,55.99,55.975z M43.579,61.115c0.735,0.872,1.186,1.876,0.572,2.869
			c-0.17,0.274-0.363,0.478-0.572,0.621c-0.211-0.144-0.402-0.347-0.572-0.621C42.391,62.991,42.842,61.987,43.579,61.115z
			 M31.167,55.975c-0.096,1.137-0.488,2.165-1.624,2.433c-0.314,0.074-0.595,0.081-0.845,0.034
			c-0.047-0.249-0.039-0.529,0.035-0.844C29,56.461,30.03,56.07,31.167,55.975z M20.846,43.563c0.08,0.619,0.375,1.205,0.977,1.718
			c1.986,1.69,4.169-0.04,5.718-1.718c-1.549-1.678-3.731-3.409-5.718-1.719C21.221,42.357,20.926,42.943,20.846,43.563z
			 M27.504,59.637c0.494,0.381,1.117,0.586,1.906,0.523c2.6-0.209,2.919-2.977,2.827-5.258c-2.282-0.092-5.049,0.229-5.257,2.828
			C26.917,58.52,27.124,59.143,27.504,59.637z M43.579,66.294c0.619-0.08,1.205-0.374,1.717-0.978
			c1.691-1.985-0.039-4.168-1.717-5.717c-1.68,1.549-3.41,3.731-1.719,5.717C42.374,65.92,42.959,66.214,43.579,66.294z
			 M59.652,59.637c0.381-0.494,0.587-1.117,0.524-1.906c-0.209-2.6-2.977-2.92-5.258-2.828c-0.092,2.281,0.228,5.049,2.827,5.258
			C58.535,60.223,59.157,60.018,59.652,59.637z M66.309,43.563c-0.079-0.619-0.374-1.205-0.977-1.719
			c-1.986-1.69-4.168,0.041-5.717,1.719c1.549,1.678,3.73,3.408,5.717,1.718C65.935,44.768,66.23,44.182,66.309,43.563z
			 M59.652,27.488c-0.495-0.381-1.117-0.587-1.906-0.523c-2.6,0.209-2.919,2.976-2.827,5.258c2.281,0.092,5.049-0.229,5.258-2.828
			C60.239,28.605,60.033,27.982,59.652,27.488z M43.579,20.83c-0.619,0.08-1.205,0.375-1.719,0.979
			c-1.691,1.984,0.039,4.168,1.719,5.717c1.678-1.549,3.408-3.732,1.717-5.717C44.784,21.205,44.198,20.91,43.579,20.83z
			 M27.504,27.488c-0.381,0.494-0.588,1.117-0.523,1.906c0.208,2.6,2.975,2.92,5.257,2.828c0.092-2.282-0.228-5.049-2.827-5.258
			C28.622,26.901,27.999,27.107,27.504,27.488z M27.946,43.563c-1.317,1.927-2.564,4.523-0.347,6.091
			c0.177,0.126,0.353,0.228,0.528,0.309c-0.066,0.182-0.119,0.378-0.155,0.593c-0.46,2.676,2.259,3.631,4.552,4.062
			c0.432,2.294,1.385,5.012,4.063,4.552c0.213-0.037,0.41-0.089,0.592-0.155c0.081,0.175,0.184,0.352,0.309,0.528
			c1.568,2.219,4.164,0.971,6.092-0.346c1.926,1.316,4.522,2.564,6.09,0.346c0.125-0.177,0.229-0.354,0.309-0.528
			c0.182,0.066,0.379,0.118,0.593,0.155c2.677,0.46,3.631-2.258,4.062-4.552c2.295-0.431,5.012-1.386,4.553-4.062
			c-0.037-0.215-0.09-0.411-0.156-0.593c0.176-0.081,0.352-0.183,0.529-0.309c2.218-1.567,0.971-4.164-0.347-6.091
			c1.317-1.928,2.564-4.523,0.347-6.092c-0.178-0.125-0.354-0.227-0.529-0.309c0.066-0.181,0.119-0.378,0.156-0.592
			c0.459-2.677-2.258-3.631-4.553-4.062c-0.431-2.294-1.385-5.013-4.062-4.552c-0.214,0.036-0.411,0.088-0.593,0.155
			c-0.08-0.175-0.184-0.353-0.309-0.528c-1.567-2.219-4.164-0.971-6.09,0.346c-1.928-1.316-4.523-2.564-6.092-0.346
			c-0.125,0.176-0.228,0.354-0.309,0.528c-0.182-0.067-0.379-0.119-0.592-0.155c-2.678-0.461-3.631,2.258-4.063,4.552
			c-2.293,0.431-5.012,1.385-4.552,4.062c0.036,0.214,0.089,0.411,0.155,0.592c-0.176,0.082-0.352,0.184-0.528,0.309
			C25.381,39.039,26.628,41.635,27.946,43.563z M32.795,48.029c0.367-0.422,0.704-0.858,1.004-1.265
			c0.058,0.042,0.115,0.083,0.173,0.124c-0.178,0.272-0.366,0.568-0.553,0.881c0.353,0.09,0.696,0.166,1.014,0.232
			c-0.011,0.07-0.022,0.141-0.034,0.211C33.9,48.138,33.352,48.066,32.795,48.029z M39.112,54.346
			c-0.039-0.559-0.109-1.105-0.184-1.604c0.07-0.011,0.14-0.022,0.21-0.034c0.066,0.318,0.143,0.66,0.231,1.014
			c0.313-0.186,0.609-0.375,0.881-0.553c0.042,0.058,0.084,0.115,0.125,0.173C39.969,53.641,39.533,53.979,39.112,54.346z
			 M48.044,54.346c-0.421-0.367-0.858-0.705-1.265-1.005c0.042-0.058,0.084-0.115,0.125-0.173c0.271,0.178,0.568,0.367,0.881,0.553
			c0.09-0.354,0.166-0.695,0.232-1.014c0.07,0.012,0.141,0.023,0.21,0.034C48.153,53.24,48.083,53.787,48.044,54.346z
			 M54.362,48.029c-0.559,0.037-1.105,0.108-1.605,0.184c-0.011-0.07-0.022-0.141-0.033-0.211c0.318-0.066,0.66-0.143,1.014-0.232
			c-0.187-0.313-0.375-0.608-0.553-0.881c0.057-0.041,0.115-0.082,0.172-0.124C53.657,47.171,53.994,47.607,54.362,48.029z
			 M54.362,39.096c-0.368,0.422-0.705,0.858-1.006,1.265c-0.057-0.042-0.115-0.083-0.172-0.125c0.178-0.272,0.366-0.567,0.553-0.881
			c-0.354-0.089-0.695-0.165-1.014-0.231c0.011-0.07,0.022-0.141,0.033-0.211C53.256,38.987,53.803,39.058,54.362,39.096z
			 M48.044,32.779c0.038,0.559,0.108,1.105,0.184,1.604c-0.069,0.011-0.14,0.022-0.21,0.034c-0.066-0.318-0.143-0.661-0.232-1.014
			c-0.313,0.186-0.609,0.375-0.881,0.553c-0.041-0.059-0.083-0.115-0.125-0.174C47.186,33.484,47.624,33.146,48.044,32.779z
			 M39.112,32.779c0.421,0.367,0.857,0.705,1.264,1.004c-0.041,0.059-0.083,0.115-0.125,0.174c-0.271-0.178-0.567-0.367-0.881-0.553
			c-0.089,0.353-0.165,0.695-0.231,1.014c-0.07-0.012-0.14-0.023-0.21-0.034C39.002,33.885,39.073,33.338,39.112,32.779z
			 M32.795,39.096c0.557-0.038,1.104-0.108,1.604-0.184c0.012,0.07,0.023,0.141,0.034,0.211c-0.317,0.066-0.661,0.143-1.014,0.231
			c0.187,0.313,0.375,0.608,0.553,0.881c-0.058,0.042-0.115,0.083-0.173,0.125C33.5,39.954,33.163,39.518,32.795,39.096z
			 M26.362,50.693c-2.707-1.897-5.443-3.749-8.354-5.324c-1.173-0.635-2.407-1.262-3.681-1.807c1.273-0.545,2.508-1.172,3.681-1.807
			c2.911-1.576,5.647-3.428,8.354-5.324c-0.572-3.256-1.199-6.501-2.143-9.673c-0.381-1.279-0.81-2.595-1.324-3.88
			c1.285,0.516,2.6,0.944,3.879,1.324c3.172,0.944,6.417,1.57,9.673,2.143c1.897-2.707,3.749-5.443,5.325-8.354
			c0.635-1.174,1.262-2.407,1.807-3.681c0.544,1.273,1.17,2.507,1.807,3.681c1.574,2.91,3.426,5.646,5.324,8.354
			c3.256-0.572,6.5-1.198,9.672-2.143c1.279-0.38,2.594-0.809,3.88-1.324c-0.515,1.285-0.944,2.601-1.325,3.88
			c-0.943,3.172-1.569,6.417-2.142,9.673c2.706,1.896,5.444,3.748,8.354,5.324c1.174,0.635,2.406,1.262,3.68,1.807
			c-1.273,0.545-2.506,1.172-3.68,1.807c-2.91,1.575-5.648,3.427-8.354,5.324c0.572,3.256,1.198,6.5,2.142,9.673
			c0.381,1.278,0.811,2.594,1.325,3.88c-1.286-0.516-2.601-0.944-3.88-1.325c-3.172-0.944-6.416-1.569-9.672-2.142
			c-1.898,2.706-3.75,5.443-5.324,8.354c-0.637,1.174-1.263,2.406-1.807,3.68c-0.545-1.273-1.172-2.506-1.807-3.68
			c-1.576-2.91-3.428-5.647-5.325-8.354c-3.256,0.572-6.501,1.197-9.673,2.142c-1.279,0.381-2.594,0.81-3.879,1.325
			c0.515-1.286,0.943-2.602,1.324-3.88C25.163,57.193,25.79,53.949,26.362,50.693z"/>
		<path fill="#232323" d="M29.331,47.223c-0.009-0.008-0.019-0.012-0.026-0.02C29.39,47.269,29.397,47.275,29.331,47.223z"/>
		<path fill="#232323" d="M36.091,56.225c-0.011,0.002-0.021,0.005-0.032,0.005C36.167,56.216,36.176,56.215,36.091,56.225z"/>
		<path fill="#232323" d="M47.238,57.811c-0.007,0.008-0.012,0.018-0.02,0.025C47.284,57.75,47.29,57.742,47.238,57.811z"/>
		<path fill="#232323" d="M56.241,51.049c0.001,0.012,0.004,0.021,0.004,0.033C56.231,50.975,56.23,50.965,56.241,51.049z"/>
		<path fill="#232323" d="M57.826,39.902c0.009,0.008,0.019,0.012,0.026,0.02C57.766,39.855,57.758,39.85,57.826,39.902z"/>
		<path fill="#232323" d="M51.065,30.899c0.011-0.001,0.021-0.004,0.032-0.005C50.99,30.909,50.98,30.91,51.065,30.899z"/>
		<path fill="#232323" d="M39.918,29.314c0.007-0.008,0.012-0.018,0.02-0.025C39.872,29.375,39.866,29.382,39.918,29.314z"/>
		<path fill="#232323" d="M30.915,36.076c0-0.012-0.004-0.021-0.004-0.033C30.924,36.15,30.926,36.16,30.915,36.076z"/>
		<path fill="#232323" d="M29.331,39.902c-0.009,0.008-0.019,0.012-0.026,0.02C29.39,39.855,29.397,39.85,29.331,39.902z"/>
		<path fill="#232323" d="M30.915,51.049c0,0.012-0.004,0.021-0.004,0.033C30.924,50.975,30.926,50.965,30.915,51.049z"/>
		<path fill="#232323" d="M39.918,57.811c0.007,0.008,0.012,0.018,0.02,0.025C39.872,57.75,39.866,57.742,39.918,57.811z"/>
		<path fill="#232323" d="M51.065,56.225c0.011,0.002,0.021,0.005,0.032,0.005C50.99,56.216,50.98,56.215,51.065,56.225z"/>
		<path fill="#232323" d="M57.826,47.223c0.009-0.008,0.019-0.012,0.026-0.02C57.766,47.269,57.758,47.275,57.826,47.223z"/>
		<path fill="#232323" d="M56.241,36.076c0.001-0.012,0.004-0.021,0.004-0.033C56.231,36.15,56.23,36.16,56.241,36.076z"/>
		<path fill="#232323" d="M47.238,29.314c-0.007-0.008-0.012-0.018-0.02-0.025C47.284,29.375,47.29,29.382,47.238,29.314z"/>
		<path fill="#232323" d="M36.091,30.899c-0.011-0.001-0.021-0.004-0.032-0.005C36.167,30.909,36.176,30.91,36.091,30.899z"/>
	</g>
</g>
</svg>
